<svg width="40" height="41" viewBox="0 0 40 41" fill="none" xmlns="http://www.w3.org/2000/svg">
<rect y="0.0814209" width="40" height="40" rx="20" fill="#F5F7FA"/>
<path fill-rule="evenodd" clip-rule="evenodd" d="M20.006 14.9454C18.6431 14.9454 17.3361 15.4867 16.3722 16.4502C15.4083 17.4137 14.8665 18.7206 14.866 20.0834C14.866 21.4466 15.4075 22.754 16.3715 23.718C17.3354 24.6819 18.6428 25.2234 20.006 25.2234C21.3692 25.2234 22.6766 24.6819 23.6405 23.718C24.6045 22.754 25.146 21.4466 25.146 20.0834C25.1455 18.7206 24.6037 17.4137 23.6398 16.4502C22.6759 15.4867 21.3689 14.9454 20.006 14.9454ZM20.006 23.4154C19.5634 23.4231 19.1237 23.3425 18.7125 23.1785C18.3014 23.0144 17.927 22.7701 17.6113 22.4598C17.2955 22.1495 17.0448 21.7794 16.8736 21.3711C16.7024 20.9629 16.6143 20.5246 16.6143 20.0819C16.6143 19.6392 16.7024 19.201 16.8736 18.7927C17.0448 18.3845 17.2955 18.0144 17.6113 17.7041C17.927 17.3938 18.3014 17.1495 18.7125 16.9854C19.1237 16.8213 19.5634 16.7408 20.006 16.7484C20.8902 16.7484 21.7382 17.0997 22.3635 17.7249C22.9887 18.3502 23.34 19.1982 23.34 20.0824C23.34 20.9667 22.9887 21.8147 22.3635 22.4399C21.7382 23.0652 20.8902 23.4164 20.006 23.4164V23.4154Z" fill="#A3D5F3"/>
<path d="M25.349 15.9414C25.6672 15.9414 25.9725 15.815 26.1975 15.5899C26.4226 15.3649 26.549 15.0596 26.549 14.7414C26.549 14.4231 26.4226 14.1179 26.1975 13.8929C25.9725 13.6678 25.6672 13.5414 25.349 13.5414C25.0307 13.5414 24.7255 13.6678 24.5005 13.8929C24.2754 14.1179 24.149 14.4231 24.149 14.7414C24.149 15.0596 24.2754 15.3649 24.5005 15.5899C24.7255 15.815 25.0307 15.9414 25.349 15.9414Z" fill="#A3D5F3"/>
<path fill-rule="evenodd" clip-rule="evenodd" d="M20.006 10.0814C17.289 10.0814 16.949 10.0934 15.882 10.1404C14.819 10.1864 14.088 10.3584 13.455 10.6054C12.795 10.8624 12.235 11.2024 11.681 11.7614C11.1711 12.2602 10.7762 12.8642 10.524 13.5314C10.278 14.1684 10.106 14.8944 10.059 15.9574C10.012 17.0274 10 17.3674 10 20.0834C10 22.7984 10.012 23.1384 10.059 24.2054C10.106 25.2684 10.278 25.9984 10.524 26.6314C10.782 27.2914 11.122 27.8514 11.681 28.4054C12.1801 28.9137 12.7842 29.3069 13.451 29.5574C14.088 29.8044 14.815 29.9764 15.878 30.0224C16.945 30.0694 17.286 30.0814 20.002 30.0814C22.718 30.0814 23.058 30.0694 24.125 30.0224C25.189 29.9764 25.919 29.8044 26.553 29.5584C27.2199 29.3076 27.824 28.9141 28.323 28.4054C28.8317 27.9065 29.2252 27.3024 29.476 26.6354C29.723 25.9984 29.895 25.2724 29.941 24.2094C29.988 23.1424 30 22.8024 30 20.0874C30 17.3714 29.988 17.0324 29.941 15.9654C29.895 14.9024 29.723 14.1724 29.476 13.5394C29.2348 12.8672 28.8432 12.2591 28.331 11.7614C27.832 11.2528 27.2279 10.8593 26.561 10.6084C25.923 10.3624 25.196 10.1904 24.133 10.1444C23.063 10.0934 22.723 10.0814 20.006 10.0814ZM20.006 11.8824C22.679 11.8824 22.996 11.8944 24.047 11.9414C25.024 11.9844 25.552 12.1484 25.904 12.2854C26.369 12.4654 26.705 12.6834 27.053 13.0314C27.405 13.3824 27.62 13.7154 27.799 14.1794C27.936 14.5314 28.1 15.0624 28.143 16.0354C28.19 17.0904 28.203 17.4074 28.203 20.0754C28.203 22.7474 28.19 23.0644 28.143 24.1154C28.1 25.0924 27.936 25.6194 27.799 25.9714C27.619 26.4364 27.401 26.7714 27.053 27.1194C26.7307 27.4517 26.3376 27.7071 25.903 27.8664C25.553 28.0034 25.02 28.1664 24.047 28.2094C22.992 28.2564 22.675 28.2694 20.006 28.2694C17.332 28.2694 17.016 28.2564 15.964 28.2094C14.987 28.1674 14.46 28.0034 14.108 27.8664C13.6736 27.7066 13.2806 27.4513 12.958 27.1194C12.6262 26.7977 12.3713 26.4053 12.212 25.9714C12.075 25.6194 11.912 25.0884 11.868 24.1154C11.821 23.0604 11.81 22.7444 11.81 20.0754C11.81 17.4034 11.821 17.0864 11.868 16.0354C11.911 15.0594 12.075 14.5314 12.212 14.1794C12.392 13.7154 12.611 13.3794 12.959 13.0314C13.2811 12.6996 13.6738 12.4446 14.108 12.2854C14.46 12.1484 14.991 11.9844 15.964 11.9414C17.016 11.8944 17.332 11.8824 20.006 11.8824Z" fill="#A3D5F3"/>
</svg>
