<svg width="200" height="82" viewBox="0 0 200 82" fill="none" xmlns="http://www.w3.org/2000/svg">
<mask id="mask0_7_3801" style="mask-type:alpha" maskUnits="userSpaceOnUse" x="0" y="1" width="200" height="81">
<rect y="1.25" width="200" height="80" rx="40" fill="#D9D9D9"/>
</mask>
<g mask="url(#mask0_7_3801)">
<circle cx="100" cy="41.25" r="40" fill="#D2D5E2"/>
<circle cx="40" cy="41.25" r="40" fill="#D2D5E2"/>
<circle cx="160" cy="41.25" r="40" fill="#D2D5E2"/>
<mask id="path-5-inside-1_7_3801" fill="white">
<path d="M170.634 53.6582C173.49 53.6582 175.506 55.3384 175.506 58.0264V72.25H166.21V61.5537H145.098V53.6582H170.634ZM169.738 13.6182C172.818 13.6183 174.441 15.3541 174.441 17.7617V29.5225H155.569V32.3779H175.002V39.4902H165.258V42.75H204C205.657 42.75 207 44.0932 207 45.75V47.75C207 49.4069 205.657 50.75 204 50.75H-8C-9.65685 50.75 -11 49.4069 -11 47.75V45.75C-10.9999 44.0932 -9.6568 42.75 -8 42.75H95.9619V36.9141H90.6982C87.8422 36.9141 85.9941 35.1779 85.9941 32.5459V14.7383H115.394V22.6338H95.29V29.0186H115.394V36.9141H105.258V42.75H155.962V39.4902H151.202C148.122 39.4902 146.498 37.6977 146.498 35.3457V23.3623H165.37V20.6182H146.498V13.6182H169.738ZM38.2021 24.4258H32.6016V30.5859H40.2178V16.4746H56.7383V24.4258H49.0654V30.5859H56.8496V38.5381H28.2334C25.5457 38.5379 23.7539 36.8581 23.7539 34.1143V16.4746H38.2021V24.4258Z"/>
</mask>
<path d="M170.634 53.6582C173.49 53.6582 175.506 55.3384 175.506 58.0264V72.25H166.21V61.5537H145.098V53.6582H170.634ZM169.738 13.6182C172.818 13.6183 174.441 15.3541 174.441 17.7617V29.5225H155.569V32.3779H175.002V39.4902H165.258V42.75H204C205.657 42.75 207 44.0932 207 45.75V47.75C207 49.4069 205.657 50.75 204 50.75H-8C-9.65685 50.75 -11 49.4069 -11 47.75V45.75C-10.9999 44.0932 -9.6568 42.75 -8 42.75H95.9619V36.9141H90.6982C87.8422 36.9141 85.9941 35.1779 85.9941 32.5459V14.7383H115.394V22.6338H95.29V29.0186H115.394V36.9141H105.258V42.75H155.962V39.4902H151.202C148.122 39.4902 146.498 37.6977 146.498 35.3457V23.3623H165.37V20.6182H146.498V13.6182H169.738ZM38.2021 24.4258H32.6016V30.5859H40.2178V16.4746H56.7383V24.4258H49.0654V30.5859H56.8496V38.5381H28.2334C25.5457 38.5379 23.7539 36.8581 23.7539 34.1143V16.4746H38.2021V24.4258Z" fill="#FDFDF5"/>
<path d="M175.506 72.25V73.25H176.506V72.25H175.506ZM166.21 72.25H165.21V73.25H166.21V72.25ZM166.21 61.5537H167.21V60.5537H166.21V61.5537ZM145.098 61.5537H144.098V62.5537H145.098V61.5537ZM145.098 53.6582V52.6582H144.098V53.6582H145.098ZM169.738 13.6182L169.738 12.6182H169.738V13.6182ZM174.441 17.7617H175.441V17.7616L174.441 17.7617ZM174.441 29.5225V30.5225H175.441V29.5225H174.441ZM155.569 29.5225V28.5225H154.569V29.5225H155.569ZM155.569 32.3779H154.569V33.3779H155.569V32.3779ZM175.002 32.3779H176.002V31.3779H175.002V32.3779ZM175.002 39.4902V40.4902H176.002V39.4902H175.002ZM165.258 39.4902V38.4902H164.258V39.4902H165.258ZM165.258 42.75H164.258V43.75H165.258V42.75ZM207 45.75H208V45.7499L207 45.75ZM204 50.75V51.75V50.75ZM-11 45.75L-12 45.7499V45.75H-11ZM-8 42.75V41.75V42.75ZM95.9619 42.75V43.75H96.9619V42.75H95.9619ZM95.9619 36.9141H96.9619V35.9141H95.9619V36.9141ZM85.9941 14.7383V13.7383H84.9941V14.7383H85.9941ZM115.394 14.7383H116.394V13.7383H115.394V14.7383ZM115.394 22.6338V23.6338H116.394V22.6338H115.394ZM95.29 22.6338V21.6338H94.29V22.6338H95.29ZM95.29 29.0186H94.29V30.0186H95.29V29.0186ZM115.394 29.0186H116.394V28.0186H115.394V29.0186ZM115.394 36.9141V37.9141H116.394V36.9141H115.394ZM105.258 36.9141V35.9141H104.258V36.9141H105.258ZM105.258 42.75H104.258V43.75H105.258V42.75ZM155.962 42.75V43.75H156.962V42.75H155.962ZM155.962 39.4902H156.962V38.4902H155.962V39.4902ZM146.498 23.3623V22.3623H145.498V23.3623H146.498ZM165.37 23.3623V24.3623H166.37V23.3623H165.37ZM165.37 20.6182H166.37V19.6182H165.37V20.6182ZM146.498 20.6182H145.498V21.6182H146.498V20.6182ZM146.498 13.6182V12.6182H145.498V13.6182H146.498ZM38.2021 24.4258V25.4258H39.2021V24.4258H38.2021ZM32.6016 24.4258V23.4258H31.6016V24.4258H32.6016ZM32.6016 30.5859H31.6016V31.5859H32.6016V30.5859ZM40.2178 30.5859V31.5859H41.2178V30.5859H40.2178ZM40.2178 16.4746V15.4746H39.2178V16.4746H40.2178ZM56.7383 16.4746H57.7383V15.4746H56.7383V16.4746ZM56.7383 24.4258V25.4258H57.7383V24.4258H56.7383ZM49.0654 24.4258V23.4258H48.0654V24.4258H49.0654ZM49.0654 30.5859H48.0654V31.5859H49.0654V30.5859ZM56.8496 30.5859H57.8496V29.5859H56.8496V30.5859ZM56.8496 38.5381V39.5381H57.8496V38.5381H56.8496ZM28.2334 38.5381L28.2333 39.5381H28.2334V38.5381ZM23.7539 34.1143H22.7539V34.1143L23.7539 34.1143ZM23.7539 16.4746V15.4746H22.7539V16.4746H23.7539ZM38.2021 16.4746H39.2021V15.4746H38.2021V16.4746ZM170.634 53.6582V54.6582C171.87 54.6582 172.838 55.0209 173.481 55.5857C174.111 56.1388 174.506 56.9497 174.506 58.0264H175.506H176.506C176.506 56.415 175.893 55.0418 174.801 54.0829C173.722 53.1356 172.253 52.6582 170.634 52.6582V53.6582ZM175.506 58.0264H174.506V72.25H175.506H176.506V58.0264H175.506ZM175.506 72.25V71.25H166.21V72.25V73.25H175.506V72.25ZM166.21 72.25H167.21V61.5537H166.21H165.21V72.25H166.21ZM166.21 61.5537V60.5537H145.098V61.5537V62.5537H166.21V61.5537ZM145.098 61.5537H146.098V53.6582H145.098H144.098V61.5537H145.098ZM145.098 53.6582V54.6582H170.634V53.6582V52.6582H145.098V53.6582ZM169.738 13.6182L169.738 14.6182C171.093 14.6182 172.002 14.9976 172.564 15.5197C173.119 16.0359 173.441 16.7894 173.441 17.7618L174.441 17.7617L175.441 17.7616C175.441 16.3264 174.951 15.0082 173.925 14.0546C172.905 13.1068 171.463 12.6183 169.738 12.6182L169.738 13.6182ZM174.441 17.7617H173.441V29.5225H174.441H175.441V17.7617H174.441ZM174.441 29.5225V28.5225H155.569V29.5225V30.5225H174.441V29.5225ZM155.569 29.5225H154.569V32.3779H155.569H156.569V29.5225H155.569ZM155.569 32.3779V33.3779H175.002V32.3779V31.3779H155.569V32.3779ZM175.002 32.3779H174.002V39.4902H175.002H176.002V32.3779H175.002ZM175.002 39.4902V38.4902H165.258V39.4902V40.4902H175.002V39.4902ZM165.258 39.4902H164.258V42.75H165.258H166.258V39.4902H165.258ZM165.258 42.75V43.75H204V42.75V41.75H165.258V42.75ZM204 42.75V43.75C205.104 43.75 206 44.6455 206 45.7501L207 45.75L208 45.7499C208 43.541 206.209 41.75 204 41.75V42.75ZM207 45.75H206V47.75H207H208V45.75H207ZM207 47.75H206C206 48.8546 205.105 49.75 204 49.75V50.75V51.75C206.209 51.75 208 49.9591 208 47.75H207ZM204 50.75V49.75H-8V50.75V51.75H204V50.75ZM-8 50.75V49.75C-9.10457 49.75 -10 48.8546 -10 47.75H-11H-12C-12 49.9591 -10.2091 51.75 -8 51.75V50.75ZM-11 47.75H-10V45.75H-11H-12V47.75H-11ZM-11 45.75L-10 45.7501C-9.99994 44.6455 -9.10446 43.75 -8 43.75V42.75V41.75C-10.2091 41.75 -11.9999 43.541 -12 45.7499L-11 45.75ZM-8 42.75V43.75H95.9619V42.75V41.75H-8V42.75ZM95.9619 42.75H96.9619V36.9141H95.9619H94.9619V42.75H95.9619ZM95.9619 36.9141V35.9141H90.6982V36.9141V37.9141H95.9619V36.9141ZM90.6982 36.9141V35.9141C89.4721 35.9141 88.5565 35.544 87.9568 34.9853C87.3639 34.4329 86.9941 33.6176 86.9941 32.5459H85.9941H84.9941C84.9941 34.1062 85.5484 35.475 86.5935 36.4487C87.6319 37.4161 89.0684 37.9141 90.6982 37.9141V36.9141ZM85.9941 32.5459H86.9941V14.7383H85.9941H84.9941V32.5459H85.9941ZM85.9941 14.7383V15.7383H115.394V14.7383V13.7383H85.9941V14.7383ZM115.394 14.7383H114.394V22.6338H115.394H116.394V14.7383H115.394ZM115.394 22.6338V21.6338H95.29V22.6338V23.6338H115.394V22.6338ZM95.29 22.6338H94.29V29.0186H95.29H96.29V22.6338H95.29ZM95.29 29.0186V30.0186H115.394V29.0186V28.0186H95.29V29.0186ZM115.394 29.0186H114.394V36.9141H115.394H116.394V29.0186H115.394ZM115.394 36.9141V35.9141H105.258V36.9141V37.9141H115.394V36.9141ZM105.258 36.9141H104.258V42.75H105.258H106.258V36.9141H105.258ZM105.258 42.75V43.75H155.962V42.75V41.75H105.258V42.75ZM155.962 42.75H156.962V39.4902H155.962H154.962V42.75H155.962ZM155.962 39.4902V38.4902H151.202V39.4902V40.4902H155.962V39.4902ZM151.202 39.4902V38.4902C149.856 38.4902 148.945 38.1015 148.379 37.5707C147.817 37.0433 147.498 36.2853 147.498 35.3457H146.498H145.498C145.498 36.7581 145.991 38.0724 147.011 39.0293C148.027 39.9827 149.469 40.4902 151.202 40.4902V39.4902ZM146.498 35.3457H147.498V23.3623H146.498H145.498V35.3457H146.498ZM146.498 23.3623V24.3623H165.37V23.3623V22.3623H146.498V23.3623ZM165.37 23.3623H166.37V20.6182H165.37H164.37V23.3623H165.37ZM165.37 20.6182V19.6182H146.498V20.6182V21.6182H165.37V20.6182ZM146.498 20.6182H147.498V13.6182H146.498H145.498V20.6182H146.498ZM146.498 13.6182V14.6182H169.738V13.6182V12.6182H146.498V13.6182ZM38.2021 24.4258V23.4258H32.6016V24.4258V25.4258H38.2021V24.4258ZM32.6016 24.4258H31.6016V30.5859H32.6016H33.6016V24.4258H32.6016ZM32.6016 30.5859V31.5859H40.2178V30.5859V29.5859H32.6016V30.5859ZM40.2178 30.5859H41.2178V16.4746H40.2178H39.2178V30.5859H40.2178ZM40.2178 16.4746V17.4746H56.7383V16.4746V15.4746H40.2178V16.4746ZM56.7383 16.4746H55.7383V24.4258H56.7383H57.7383V16.4746H56.7383ZM56.7383 24.4258V23.4258H49.0654V24.4258V25.4258H56.7383V24.4258ZM49.0654 24.4258H48.0654V30.5859H49.0654H50.0654V24.4258H49.0654ZM49.0654 30.5859V31.5859H56.8496V30.5859V29.5859H49.0654V30.5859ZM56.8496 30.5859H55.8496V38.5381H56.8496H57.8496V30.5859H56.8496ZM56.8496 38.5381V37.5381H28.2334V38.5381V39.5381H56.8496V38.5381ZM28.2334 38.5381L28.2335 37.5381C27.0988 37.538 26.2467 37.1868 25.6832 36.6384C25.1234 36.0936 24.7539 35.2623 24.7539 34.1142L23.7539 34.1143L22.7539 34.1143C22.7539 35.71 23.2803 37.0906 24.2883 38.0716C25.2926 39.0492 26.6802 39.538 28.2333 39.5381L28.2334 38.5381ZM23.7539 34.1143H24.7539V16.4746H23.7539H22.7539V34.1143H23.7539ZM23.7539 16.4746V17.4746H38.2021V16.4746V15.4746H23.7539V16.4746ZM38.2021 16.4746H37.2021V24.4258H38.2021H39.2021V16.4746H38.2021Z" fill="white" mask="url(#path-5-inside-1_7_3801)"/>
</g>
</svg>
