<svg width="33" height="32" viewBox="0 0 33 32" fill="none" xmlns="http://www.w3.org/2000/svg">
<path fill-rule="evenodd" clip-rule="evenodd" d="M19.4569 8.36893C18.9738 7.83217 18.1386 7.77573 17.5073 8.40707L7.90731 18.0071C7.89492 18.0195 7.8822 18.0315 7.86917 18.0433C7.33241 18.5263 7.27598 19.3615 7.90731 19.9929L12.2073 24.2929C12.5978 24.6834 12.5978 25.3165 12.2073 25.7071C11.8168 26.0976 11.1836 26.0976 10.7931 25.7071L6.4931 21.4071C5.13105 20.045 5.06858 17.8945 6.51014 16.5758L16.0931 6.99286C17.4552 5.6308 19.6057 5.56833 20.9244 7.0099L26.5073 12.5929C27.8694 13.9549 27.9318 16.1054 26.4903 17.4241L18.2073 25.7071C17.8168 26.0976 17.1836 26.0976 16.7931 25.7071C16.4026 25.3165 16.4026 24.6834 16.7931 24.2929L25.0931 15.9929C25.1055 15.9805 25.1182 15.9684 25.1312 15.9567C25.668 15.4736 25.7244 14.6384 25.0931 14.0071L19.4931 8.40707C19.4807 8.39467 19.4686 8.38196 19.4569 8.36893Z" fill="#9EA5BD"/>
<path fill-rule="evenodd" clip-rule="evenodd" d="M10.5 25C10.5 24.4477 10.9477 24 11.5 24H26.5C27.0523 24 27.5 24.4477 27.5 25C27.5 25.5523 27.0523 26 26.5 26H11.5C10.9477 26 10.5 25.5523 10.5 25Z" fill="#9EA5BD"/>
<path fill-rule="evenodd" clip-rule="evenodd" d="M8.79289 14.2929C9.18342 13.9024 9.81658 13.9024 10.2071 14.2929L19.2071 23.2929C19.5976 23.6834 19.5976 24.3166 19.2071 24.7071C18.8166 25.0976 18.1834 25.0976 17.7929 24.7071L8.79289 15.7071C8.40237 15.3166 8.40237 14.6834 8.79289 14.2929Z" fill="#9EA5BD"/>
</svg>
