<svg width="32" height="32" viewBox="0 0 32 32" fill="none" xmlns="http://www.w3.org/2000/svg">
<path d="M19.1321 23.3975C17.5806 22.8875 16.6017 21.2785 16.8621 19.6661C17.1226 18.0538 18.5583 16.8348 20.1915 16.8393H23.336C24.4148 16.8423 25.4672 16.2997 26.0905 15.4193C26.7137 14.5389 26.8757 13.3659 26.5143 12.3495C25.1643 8.5379 21.715 5.72585 17.7096 5.17151C13.7041 4.61716 9.62075 6.38667 7.2863 9.68839C4.95187 12.9901 4.6451 17.4298 6.50323 21.0212C8.36138 24.6126 12.1626 26.9269 16.2062 26.9288C17.1956 26.9315 18.1804 26.7958 19.1321 26.5252C20.6517 26.0994 20.4996 23.9056 19.1321 23.3975Z" fill="#F5F7FA"/>
<path fill-rule="evenodd" clip-rule="evenodd" d="M17.8564 4.11021C13.4545 3.50098 8.97701 5.44127 6.41147 9.06986C3.84592 12.6985 3.50954 17.5666 5.55164 21.5135C7.59353 25.4602 11.761 27.9978 16.2045 28.0002C17.2928 28.0031 18.3762 27.8538 19.4232 27.5564C20.7515 27.1832 21.3157 26.0103 21.2857 24.9616C21.2568 23.9483 20.6753 22.8279 19.5054 22.3931C19.4926 22.3883 19.4797 22.3839 19.4667 22.3796C18.4157 22.0342 17.7434 20.9291 17.9198 19.837C18.0963 18.7449 19.0823 17.9077 20.1886 17.9108H23.3346C24.7614 17.9142 26.1406 17.2029 26.965 16.0383C27.7896 14.8735 28.002 13.3358 27.524 11.991C26.0401 7.80245 22.2582 4.71941 17.8564 4.11021ZM19.4232 27.5564L19.4212 27.5569L19.1321 26.5252L19.4251 27.5559L19.4232 27.5564ZM8.16115 10.307C10.2645 7.33212 13.9538 5.73338 17.5627 6.23283C21.1716 6.73231 24.288 9.27297 25.5042 12.7072C25.7487 13.3951 25.6378 14.2045 25.2159 14.8003C24.7942 15.3961 24.069 15.77 23.3391 15.7679L23.336 15.7679H20.1929C18.0335 15.7627 16.1488 17.3634 15.8044 19.4953C15.4614 21.6186 16.7344 23.7226 18.7711 24.4066C18.9637 24.4847 19.1349 24.7124 19.1438 25.0228C19.1479 25.1674 19.1114 25.2764 19.0676 25.3438C19.0317 25.399 18.9728 25.4572 18.8431 25.4936L18.8392 25.4946C17.9838 25.7377 17.0985 25.8599 16.2092 25.8574H16.2067C12.5634 25.8558 9.12902 23.7647 7.45485 20.5289C5.78068 17.293 6.05784 13.2818 8.16115 10.307ZM11.702 18.5701C10.7552 18.5701 9.98772 19.3376 9.98772 20.2844C9.98772 21.2312 10.7552 21.9987 11.702 21.9987C12.6488 21.9987 13.4163 21.2312 13.4163 20.2844C13.4163 19.3376 12.6488 18.5701 11.702 18.5701ZM15.9877 10.8558C15.9877 9.43569 17.139 8.28441 18.5592 8.28441C19.9793 8.28441 21.1306 9.43569 21.1306 10.8558C21.1306 12.276 19.9793 13.4273 18.5592 13.4273C17.139 13.4273 15.9877 12.276 15.9877 10.8558ZM11.702 10.8558C10.2818 10.8558 9.13058 12.0071 9.13058 13.4273C9.13058 14.8474 10.2818 15.9987 11.702 15.9987C13.1222 15.9987 14.2734 14.8474 14.2734 13.4273C14.2734 12.0071 13.1222 10.8558 11.702 10.8558Z" fill="#9EA5BD"/>
</svg>
