<svg width="200" height="81" viewBox="0 0 200 81" fill="none" xmlns="http://www.w3.org/2000/svg">
<path fill-rule="evenodd" clip-rule="evenodd" d="M40 80C51.9469 80 62.6706 74.7625 70 66.4582C77.3294 74.7625 88.0531 80 100 80C111.947 80 122.671 74.7625 130 66.4582C137.329 74.7625 148.053 80 160 80C182.091 80 200 62.0914 200 40C200 17.9086 182.091 0 160 0C148.053 0 137.329 5.23755 130 13.5418C122.671 5.23755 111.947 0 100 0C88.0531 0 77.3294 5.23755 70 13.5418C62.6706 5.23755 51.9469 0 40 0C17.9086 0 0 17.9086 0 40C0 62.0914 17.9086 80 40 80Z" fill="#4F9EF9"/>
<mask id="mask0_2_22" style="mask-type:alpha" maskUnits="userSpaceOnUse" x="0" y="0" width="200" height="81">
<rect y="0.5" width="200" height="80" rx="40" fill="#D9D9D9"/>
</mask>
<g mask="url(#mask0_2_22)">
<circle cx="100" cy="40.5" r="40" fill="#75C0EF"/>
<circle cx="40" cy="40.5" r="40" fill="#75C0EF"/>
<circle cx="160" cy="40.5" r="40" fill="#75C0EF"/>
<mask id="path-6-inside-1_2_22" fill="white">
<path fill-rule="evenodd" clip-rule="evenodd" d="M165.258 41.9999V38.7399H175.002V31.6279H155.57V28.7719H174.442V17.0119C174.442 14.6039 172.818 12.8679 169.738 12.8679H146.498V19.8679H165.37V22.6119H146.498V34.5959C146.498 36.9479 148.122 38.7399 151.202 38.7399H155.962V41.9999H105.258V36.1639H115.394V28.2679H95.2898V21.8839H115.394V13.9879H85.9938V31.7959C85.9938 34.4279 87.8418 36.1639 90.6978 36.1639H95.9618V41.9999H-8C-9.65685 41.9999 -11 43.3431 -11 44.9999V46.9999C-11 48.6568 -9.65686 49.9999 -8 49.9999H204C205.657 49.9999 207 48.6568 207 46.9999V44.9999C207 43.3431 205.657 41.9999 204 41.9999H165.258ZM170.634 52.9079H145.098V60.8039H166.21V71.4999H175.506V57.2759C175.506 54.5879 173.49 52.9079 170.634 52.9079ZM28.2338 37.7879C25.5458 37.7879 23.7538 36.1079 23.7538 33.3639V15.7239H38.2018V23.6759H32.6018V29.8359H40.2178V15.7239H56.7378V23.6759H49.0658V29.8359H56.8498V37.7879H28.2338Z"/>
</mask>
<path fill-rule="evenodd" clip-rule="evenodd" d="M165.258 41.9999V38.7399H175.002V31.6279H155.57V28.7719H174.442V17.0119C174.442 14.6039 172.818 12.8679 169.738 12.8679H146.498V19.8679H165.37V22.6119H146.498V34.5959C146.498 36.9479 148.122 38.7399 151.202 38.7399H155.962V41.9999H105.258V36.1639H115.394V28.2679H95.2898V21.8839H115.394V13.9879H85.9938V31.7959C85.9938 34.4279 87.8418 36.1639 90.6978 36.1639H95.9618V41.9999H-8C-9.65685 41.9999 -11 43.3431 -11 44.9999V46.9999C-11 48.6568 -9.65686 49.9999 -8 49.9999H204C205.657 49.9999 207 48.6568 207 46.9999V44.9999C207 43.3431 205.657 41.9999 204 41.9999H165.258ZM170.634 52.9079H145.098V60.8039H166.21V71.4999H175.506V57.2759C175.506 54.5879 173.49 52.9079 170.634 52.9079ZM28.2338 37.7879C25.5458 37.7879 23.7538 36.1079 23.7538 33.3639V15.7239H38.2018V23.6759H32.6018V29.8359H40.2178V15.7239H56.7378V23.6759H49.0658V29.8359H56.8498V37.7879H28.2338Z" fill="#FDFDF5"/>
<path d="M165.258 38.7399V37.7399H164.258V38.7399H165.258ZM165.258 41.9999H164.258V42.9999H165.258V41.9999ZM175.002 38.7399V39.7399H176.002V38.7399H175.002ZM175.002 31.6279H176.002V30.6279H175.002V31.6279ZM155.57 31.6279H154.57V32.6279H155.57V31.6279ZM155.57 28.7719V27.7719H154.57V28.7719H155.57ZM174.442 28.7719V29.7719H175.442V28.7719H174.442ZM146.498 12.8679V11.8679H145.498V12.8679H146.498ZM146.498 19.8679H145.498V20.8679H146.498V19.8679ZM165.37 19.8679H166.37V18.8679H165.37V19.8679ZM165.37 22.6119V23.6119H166.37V22.6119H165.37ZM146.498 22.6119V21.6119H145.498V22.6119H146.498ZM155.962 38.7399H156.962V37.7399H155.962V38.7399ZM155.962 41.9999V42.9999H156.962V41.9999H155.962ZM105.258 41.9999H104.258V42.9999H105.258V41.9999ZM105.258 36.1639V35.1639H104.258V36.1639H105.258ZM115.394 36.1639V37.1639H116.394V36.1639H115.394ZM115.394 28.2679H116.394V27.2679H115.394V28.2679ZM95.2898 28.2679H94.2898V29.2679H95.2898V28.2679ZM95.2898 21.8839V20.8839H94.2898V21.8839H95.2898ZM115.394 21.8839V22.8839H116.394V21.8839H115.394ZM115.394 13.9879H116.394V12.9879H115.394V13.9879ZM85.9938 13.9879V12.9879H84.9938V13.9879H85.9938ZM95.9618 36.1639H96.9618V35.1639H95.9618V36.1639ZM95.9618 41.9999V42.9999H96.9618V41.9999H95.9618ZM145.098 52.9079V51.9079H144.098V52.9079H145.098ZM145.098 60.8039H144.098V61.8039H145.098V60.8039ZM166.21 60.8039H167.21V59.8039H166.21V60.8039ZM166.21 71.4999H165.21V72.4999H166.21V71.4999ZM175.506 71.4999V72.4999H176.506V71.4999H175.506ZM23.7538 15.7239V14.7239H22.7538V15.7239H23.7538ZM38.2018 15.7239H39.2018V14.7239H38.2018V15.7239ZM38.2018 23.6759V24.6759H39.2018V23.6759H38.2018ZM32.6018 23.6759V22.6759H31.6018V23.6759H32.6018ZM32.6018 29.8359H31.6018V30.8359H32.6018V29.8359ZM40.2178 29.8359V30.8359H41.2178V29.8359H40.2178ZM40.2178 15.7239V14.7239H39.2178V15.7239H40.2178ZM56.7378 15.7239H57.7378V14.7239H56.7378V15.7239ZM56.7378 23.6759V24.6759H57.7378V23.6759H56.7378ZM49.0658 23.6759V22.6759H48.0658V23.6759H49.0658ZM49.0658 29.8359H48.0658V30.8359H49.0658V29.8359ZM56.8498 29.8359H57.8498V28.8359H56.8498V29.8359ZM56.8498 37.7879V38.7879H57.8498V37.7879H56.8498ZM164.258 38.7399V41.9999H166.258V38.7399H164.258ZM175.002 37.7399H165.258V39.7399H175.002V37.7399ZM174.002 31.6279V38.7399H176.002V31.6279H174.002ZM155.57 32.6279H175.002V30.6279H155.57V32.6279ZM154.57 28.7719V31.6279H156.57V28.7719H154.57ZM174.442 27.7719H155.57V29.7719H174.442V27.7719ZM173.442 17.0119V28.7719H175.442V17.0119H173.442ZM169.738 13.8679C171.093 13.8679 172.002 14.2474 172.564 14.7695C173.12 15.2858 173.442 16.0394 173.442 17.0119H175.442C175.442 15.5764 174.952 14.258 173.926 13.3044C172.905 12.3565 171.463 11.8679 169.738 11.8679V13.8679ZM146.498 13.8679H169.738V11.8679H146.498V13.8679ZM147.498 19.8679V12.8679H145.498V19.8679H147.498ZM165.37 18.8679H146.498V20.8679H165.37V18.8679ZM166.37 22.6119V19.8679H164.37V22.6119H166.37ZM146.498 23.6119H165.37V21.6119H146.498V23.6119ZM147.498 34.5959V22.6119H145.498V34.5959H147.498ZM151.202 37.7399C149.855 37.7399 148.945 37.3512 148.379 36.8206C147.817 36.2933 147.498 35.5355 147.498 34.5959H145.498C145.498 36.0083 145.991 37.3225 147.011 38.2793C148.027 39.2326 149.468 39.7399 151.202 39.7399V37.7399ZM155.962 37.7399H151.202V39.7399H155.962V37.7399ZM156.962 41.9999V38.7399H154.962V41.9999H156.962ZM105.258 42.9999H155.962V40.9999H105.258V42.9999ZM104.258 36.1639V41.9999H106.258V36.1639H104.258ZM115.394 35.1639H105.258V37.1639H115.394V35.1639ZM114.394 28.2679V36.1639H116.394V28.2679H114.394ZM95.2898 29.2679H115.394V27.2679H95.2898V29.2679ZM94.2898 21.8839V28.2679H96.2898V21.8839H94.2898ZM115.394 20.8839H95.2898V22.8839H115.394V20.8839ZM114.394 13.9879V21.8839H116.394V13.9879H114.394ZM85.9938 14.9879H115.394V12.9879H85.9938V14.9879ZM86.9938 31.7959V13.9879H84.9938V31.7959H86.9938ZM90.6978 35.1639C89.4717 35.1639 88.5561 34.7939 87.9565 34.2352C87.3636 33.6829 86.9938 32.8676 86.9938 31.7959H84.9938C84.9938 33.3562 85.548 34.7249 86.5932 35.6986C87.6316 36.666 89.068 37.1639 90.6978 37.1639V35.1639ZM95.9618 35.1639H90.6978V37.1639H95.9618V35.1639ZM96.9618 41.9999V36.1639H94.9618V41.9999H96.9618ZM-8 42.9999H95.9618V40.9999H-8V42.9999ZM-10 44.9999C-10 43.8954 -9.10457 42.9999 -8 42.9999V40.9999C-10.2091 40.9999 -12 42.7908 -12 44.9999H-10ZM-10 46.9999V44.9999H-12V46.9999H-10ZM-8 48.9999C-9.10457 48.9999 -10 48.1045 -10 46.9999H-12C-12 49.2091 -10.2091 50.9999 -8 50.9999V48.9999ZM204 48.9999H-8V50.9999H204V48.9999ZM206 46.9999C206 48.1045 205.105 48.9999 204 48.9999V50.9999C206.209 50.9999 208 49.2091 208 46.9999H206ZM206 44.9999V46.9999H208V44.9999H206ZM204 42.9999C205.105 42.9999 206 43.8954 206 44.9999H208C208 42.7908 206.209 40.9999 204 40.9999V42.9999ZM165.258 42.9999H204V40.9999H165.258V42.9999ZM145.098 53.9079H170.634V51.9079H145.098V53.9079ZM146.098 60.8039V52.9079H144.098V60.8039H146.098ZM166.21 59.8039H145.098V61.8039H166.21V59.8039ZM167.21 71.4999V60.8039H165.21V71.4999H167.21ZM175.506 70.4999H166.21V72.4999H175.506V70.4999ZM174.506 57.2759V71.4999H176.506V57.2759H174.506ZM170.634 53.9079C171.87 53.9079 172.838 54.2705 173.481 54.8354C174.111 55.3884 174.506 56.1993 174.506 57.2759H176.506C176.506 55.6646 175.893 54.2914 174.801 53.3325C173.722 52.3853 172.253 51.9079 170.634 51.9079V53.9079ZM22.7538 33.3639C22.7538 34.9598 23.2803 36.3405 24.2884 37.3216C25.2928 38.2991 26.6806 38.7879 28.2338 38.7879V36.7879C27.0991 36.7879 26.2468 36.4367 25.6833 35.8883C25.1234 35.3434 24.7538 34.512 24.7538 33.3639H22.7538ZM22.7538 15.7239V33.3639H24.7538V15.7239H22.7538ZM38.2018 14.7239H23.7538V16.7239H38.2018V14.7239ZM39.2018 23.6759V15.7239H37.2018V23.6759H39.2018ZM32.6018 24.6759H38.2018V22.6759H32.6018V24.6759ZM33.6018 29.8359V23.6759H31.6018V29.8359H33.6018ZM40.2178 28.8359H32.6018V30.8359H40.2178V28.8359ZM39.2178 15.7239V29.8359H41.2178V15.7239H39.2178ZM56.7378 14.7239H40.2178V16.7239H56.7378V14.7239ZM57.7378 23.6759V15.7239H55.7378V23.6759H57.7378ZM49.0658 24.6759H56.7378V22.6759H49.0658V24.6759ZM50.0658 29.8359V23.6759H48.0658V29.8359H50.0658ZM56.8498 28.8359H49.0658V30.8359H56.8498V28.8359ZM57.8498 37.7879V29.8359H55.8498V37.7879H57.8498ZM28.2338 38.7879H56.8498V36.7879H28.2338V38.7879Z" fill="white" mask="url(#path-6-inside-1_2_22)"/>
</g>
</svg>
