<svg width="65" height="26" viewBox="0 0 65 26" fill="none" xmlns="http://www.w3.org/2000/svg">
<g opacity="0.48">
<mask id="mask0_1078_605" style="mask-type:alpha" maskUnits="userSpaceOnUse" x="0" y="0" width="65" height="26">
<rect x="0.5" y="0.161499" width="64" height="25.8385" rx="12.9193" fill="#D9D9D9"/>
</mask>
<g mask="url(#mask0_1078_605)">
<ellipse cx="32.4992" cy="13.0808" rx="12.8" ry="12.9193" fill="#D6EEFB"/>
<ellipse cx="13.3" cy="13.0808" rx="12.8" ry="12.9193" fill="#D6EEFB"/>
<ellipse cx="51.7004" cy="13.0808" rx="12.8" ry="12.9193" fill="#D6EEFB"/>
<path d="M55.1025 17.0887C56.0164 17.0887 56.662 17.6308 56.6621 18.4988V23.0936H53.6875V19.6385H46.9316V17.0887H55.1025ZM54.8164 4.15607C55.8018 4.15618 56.3213 4.71728 56.3213 5.49493V9.29279H50.2822V10.2156H56.501V12.5125H53.3828V13.5652H65.4482C66.1617 13.5653 66.7402 14.1438 66.7402 14.8572C66.7402 15.5706 66.1616 16.1491 65.4482 16.1492H-1.72852C-2.44179 16.149 -3.01947 15.5706 -3.01953 14.8572C-3.01953 14.1439 -2.44182 13.5655 -1.72852 13.5652H31.208V11.6805H29.5234C28.6095 11.6805 28.0176 11.1194 28.0176 10.2693V4.5174H37.4258V7.06818H30.9932V9.1297H37.4258V11.6805H34.1826V13.5652H50.4082V12.5125H48.8848C47.8992 12.5125 47.3789 11.9333 47.3789 11.1736V7.30353H53.418V6.41681H47.3789V4.15607H54.8164ZM12.7246 7.64728H10.9326V9.63654H13.3701V5.07892H18.6562V7.64728H16.2012V9.63654H18.6924V12.2049H9.53516C8.67508 12.2049 8.10167 11.6623 8.10156 10.7762V5.07892H12.7246V7.64728Z" fill="#75C0EF"/>
</g>
</g>
</svg>
