<svg width="60" height="38" viewBox="0 0 60 38" fill="none" xmlns="http://www.w3.org/2000/svg">
<path d="M51.6501 11.0415V12.4515H59.5607V15.8213H39.6765V12.4515H47.6828V11.0415H45.6514C44.3369 11.0415 43.6438 10.2767 43.6438 9.27292V4.15848H51.6979V2.98741H43.6438V0H53.562C54.8765 0 55.5696 0.740878 55.5696 1.76855V6.7874H47.5155V8.00626H55.8086V11.0415H51.6501ZM43.0463 17.088H53.9444C55.1633 17.088 56.0237 17.805 56.0237 18.9521V25.0226H52.0564V20.4578H43.0463V17.088Z" fill="#C8CDD9"/>
<path d="M31.8118 9.94208V12.4515H39.7225V15.8213H19.8383V12.4515H27.8445V9.94208H25.598C24.3791 9.94208 23.5904 9.20121 23.5904 8.07794V0.477966H36.1376V3.84777H27.5577V6.57228H36.1376V9.94208H31.8118Z" fill="#C8CDD9"/>
<path d="M4.70816 10.6352C3.56099 10.6352 2.79622 9.91821 2.79622 8.74715V1.21887H8.96223V4.61257H6.5723V7.24149H9.82261V1.21887H16.8729V4.61257H13.5987V7.24149H16.9207V10.6352H4.70816ZM0 15.8213V12.4515H19.8842V15.8213H0Z" fill="#C8CDD9"/>
<path d="M54.4833 36.9722H51.6017V27.9724L54.4833 27.5491V32.2333L57.6926 29.6249L59.1675 31.5232L57.2419 33.1347C57.3694 33.7811 57.5561 34.2363 57.8019 34.5004C58.0477 34.7553 58.3663 34.8827 58.7578 34.8827C58.9217 34.8827 59.1175 34.8554 59.3451 34.8008L59.1402 36.9995C58.9672 37.036 58.8125 37.0587 58.6759 37.0678C58.5393 37.0769 58.4073 37.0815 58.2799 37.0815C57.3785 37.0815 56.6638 36.8675 56.1357 36.4396C55.6168 36.0026 55.2344 35.3653 54.9886 34.5277L54.4833 34.9647V36.9722Z" fill="#C8CDD9"/>
<path d="M46.7406 37.0815C45.9667 37.0815 45.2839 36.9313 44.6921 36.6308C44.1003 36.3304 43.6359 35.9161 43.2991 35.388C42.9713 34.8509 42.8074 34.2363 42.8074 33.5444C42.8074 32.8342 42.9759 32.2197 43.3127 31.7007C43.6587 31.1727 44.1276 30.763 44.7194 30.4716C45.3112 30.1803 45.9895 30.0346 46.7542 30.0346C47.5372 30.0346 48.2246 30.1848 48.8164 30.4853C49.4082 30.7766 49.868 31.1863 50.1957 31.7144C50.5235 32.2333 50.6874 32.8433 50.6874 33.5444C50.6874 34.2454 50.5189 34.8645 50.1821 35.4017C49.8543 35.9298 49.3945 36.344 48.8027 36.6445C48.2109 36.9358 47.5236 37.0815 46.7406 37.0815ZM46.7679 35.033C47.1412 35.033 47.4462 34.8964 47.6829 34.6233C47.9287 34.341 48.0516 33.9814 48.0516 33.5444C48.0516 33.1074 47.9333 32.7523 47.6965 32.4792C47.4598 32.1969 47.1594 32.0558 46.7952 32.0558C46.4037 32.0558 46.0851 32.1969 45.8392 32.4792C45.6025 32.7523 45.4842 33.1074 45.4842 33.5444C45.4842 33.9814 45.6025 34.341 45.8392 34.6233C46.0851 34.8964 46.3946 35.033 46.7679 35.033Z" fill="#C8CDD9"/>
<path d="M37.3499 36.9722V30.1302H40.1905V31.8373C40.3726 31.2182 40.6549 30.763 41.0373 30.4716C41.4288 30.1803 41.8931 30.0346 42.4302 30.0346L42.7717 32.4518C42.5532 32.4245 42.3392 32.4109 42.1298 32.4109C40.8643 32.4109 40.2315 32.9298 40.2315 33.9677V36.9722H37.3499Z" fill="#C8CDD9"/>
<path d="M32.4888 37.0815C31.7149 37.0815 31.0321 36.9313 30.4403 36.6308C29.8485 36.3304 29.3842 35.9161 29.0473 35.388C28.7195 34.8509 28.5557 34.2363 28.5557 33.5444C28.5557 32.8342 28.7241 32.2197 29.061 31.7007C29.4069 31.1727 29.8758 30.763 30.4676 30.4716C31.0594 30.1803 31.7377 30.0346 32.5025 30.0346C33.2854 30.0346 33.9728 30.1848 34.5646 30.4853C35.1564 30.7766 35.6162 31.1863 35.944 31.7144C36.2717 32.2333 36.4356 32.8433 36.4356 33.5444C36.4356 34.2454 36.2672 34.8645 35.9303 35.4017C35.6025 35.9298 35.1428 36.344 34.551 36.6445C33.9592 36.9358 33.2718 37.0815 32.4888 37.0815ZM32.5161 35.033C32.8894 35.033 33.1944 34.8964 33.4311 34.6233C33.6769 34.341 33.7998 33.9814 33.7998 33.5444C33.7998 33.1074 33.6815 32.7523 33.4448 32.4792C33.2081 32.1969 32.9076 32.0558 32.5434 32.0558C32.1519 32.0558 31.8333 32.1969 31.5875 32.4792C31.3507 32.7523 31.2324 33.1074 31.2324 33.5444C31.2324 33.9814 31.3507 34.341 31.5875 34.6233C31.8333 34.8964 32.1428 35.033 32.5161 35.033Z" fill="#C8CDD9"/>
<path d="M22.5421 37.0815C21.9139 37.0815 21.3449 36.9313 20.835 36.6308C20.3252 36.3212 19.92 35.8979 19.6196 35.3607C19.3282 34.8236 19.1826 34.209 19.1826 33.5171C19.1826 32.8251 19.3282 32.2197 19.6196 31.7007C19.92 31.1818 20.3252 30.7766 20.835 30.4853C21.3449 30.1848 21.9139 30.0346 22.5421 30.0346C22.9882 30.0346 23.4161 30.1575 23.8258 30.4033C24.2447 30.64 24.5542 31.027 24.7545 31.5642V27.9724L27.6361 27.5491V36.9722H24.7818V35.7021C24.5633 36.1483 24.272 36.4897 23.9078 36.7264C23.5436 36.9631 23.0884 37.0815 22.5421 37.0815ZM23.4298 34.9237C23.8031 34.9237 24.1217 34.7917 24.3858 34.5277C24.6498 34.2545 24.7818 33.9222 24.7818 33.5307C24.7818 33.1392 24.6498 32.8206 24.3858 32.5748C24.1217 32.3198 23.8031 32.1924 23.4298 32.1924C23.0383 32.1924 22.7105 32.3244 22.4465 32.5884C22.1825 32.8524 22.0505 33.1756 22.0505 33.558C22.0505 33.9404 22.1825 34.2636 22.4465 34.5277C22.7105 34.7917 23.0383 34.9237 23.4298 34.9237Z" fill="#C8CDD9"/>
<path d="M13.169 37.0815C12.5408 37.0815 11.9718 36.9313 11.4619 36.6308C10.9521 36.3212 10.5469 35.8979 10.2465 35.3607C9.95512 34.8236 9.80945 34.209 9.80945 33.5171C9.80945 32.8251 9.95512 32.2197 10.2465 31.7007C10.5469 31.1818 10.9521 30.7766 11.4619 30.4853C11.9718 30.1848 12.5408 30.0346 13.169 30.0346C13.6151 30.0346 14.043 30.1575 14.4527 30.4033C14.8715 30.64 15.1811 31.027 15.3814 31.5642V27.9724L18.263 27.5491V36.9722H15.4087V35.7021C15.1902 36.1483 14.8989 36.4897 14.5347 36.7264C14.1705 36.9631 13.7153 37.0815 13.169 37.0815ZM14.0567 34.9237C14.43 34.9237 14.7486 34.7917 15.0127 34.5277C15.2767 34.2545 15.4087 33.9222 15.4087 33.5307C15.4087 33.1392 15.2767 32.8206 15.0127 32.5748C14.7486 32.3198 14.43 32.1924 14.0567 32.1924C13.6652 32.1924 13.3374 32.3244 13.0734 32.5884C12.8094 32.8524 12.6774 33.1756 12.6774 33.558C12.6774 33.9404 12.8094 34.2636 13.0734 34.5277C13.3374 34.7917 13.6652 34.9237 14.0567 34.9237Z" fill="#C8CDD9"/>
<path d="M3.7959 37.0815C3.16769 37.0815 2.59866 36.9313 2.08881 36.6308C1.57895 36.3212 1.1738 35.8979 0.873357 35.3607C0.582013 34.8236 0.43634 34.209 0.43634 33.5171C0.43634 32.8251 0.582013 32.2197 0.873357 31.7007C1.1738 31.1818 1.57895 30.7766 2.08881 30.4853C2.59866 30.1848 3.16769 30.0346 3.7959 30.0346C4.24202 30.0346 4.66993 30.1575 5.07963 30.4033C5.49844 30.64 5.80799 31.027 6.00829 31.5642V27.9724L8.88986 27.5491V36.9722H6.0356V35.7021C5.81709 36.1483 5.52575 36.4897 5.16157 36.7264C4.79739 36.9631 4.34217 37.0815 3.7959 37.0815ZM4.68358 34.9237C5.05687 34.9237 5.37552 34.7917 5.63955 34.5277C5.90358 34.2545 6.0356 33.9222 6.0356 33.5307C6.0356 33.1392 5.90358 32.8206 5.63955 32.5748C5.37552 32.3198 5.05687 32.1924 4.68358 32.1924C4.29209 32.1924 3.96433 32.3244 3.7003 32.5884C3.43627 32.8524 3.30425 33.1756 3.30425 33.558C3.30425 33.9404 3.43627 34.2636 3.7003 34.5277C3.96433 34.7917 4.29209 34.9237 4.68358 34.9237Z" fill="#C8CDD9"/>
</svg>
